<svg width="44" height="44" viewBox="0 0 44 44" fill="none" xmlns="http://www.w3.org/2000/svg">
<rect width="44" height="44" rx="22" fill="#EAF9FE"/>
<path d="M8.54616 13.5949H8.42985V13.7112V33.8462V33.9625H8.54616H35.4523H35.5686V33.8462V13.7112V13.5949H35.4523H8.54616Z" fill="white" stroke="#1D8DAC" stroke-width="0.232618"/>
<path d="M25.1287 20.4978H17.9679V32.046H25.1287V20.4978Z" fill="#575961"/>
<mask id="mask0_220_4250" style="mask-type:luminance" maskUnits="userSpaceOnUse" x="18" y="21" width="7" height="11">
<path d="M24.6333 21.0973H18.465V31.4457H24.6333V21.0973Z" fill="white"/>
</mask>
<g mask="url(#mask0_220_4250)">
<path d="M24.6335 21.0973H18.4653V31.4457H24.6335V21.0973Z" fill="#EAF9FE"/>
<path style="mix-blend-mode:screen" opacity="0.2" d="M24.0818 20.4861L16.4705 28.5365L17.2715 29.3838L24.8828 21.3333L24.0818 20.4861Z" fill="url(#paint0_linear_220_4250)"/>
<path style="mix-blend-mode:screen" opacity="0.5" d="M24.7528 23.0422L18.5062 29.6492L18.8505 30.0134L25.0972 23.4063L24.7528 23.0422Z" fill="url(#paint1_linear_220_4250)"/>
</g>
<path d="M24.9868 22.2126H18.1099V22.5874H24.9868V22.2126Z" fill="#575961"/>
<path d="M24.9868 22.9164H18.1099V23.2912H24.9868V22.9164Z" fill="#575961"/>
<path d="M24.9868 21.5099H18.1099V21.8847H24.9868V21.5099Z" fill="#575961"/>
<path d="M19.0675 20.9669H18.9077V23.2444H19.0675V20.9669Z" fill="#575961"/>
<path d="M24.1727 20.9669H24.0129V23.2444H24.1727V20.9669Z" fill="#575961"/>
<g style="mix-blend-mode:multiply" opacity="0.3">
<path d="M25.3551 31.8212C25.3551 32.3806 24.976 32.8333 24.5076 32.8333H18.8108C18.3425 32.8333 17.9633 32.3798 17.9633 31.8212V30.359C17.9633 29.7996 18.3425 29.3469 18.8108 29.3469H24.5076C24.976 29.3469 25.3551 29.8005 25.3551 30.359V31.8212Z" fill="#888994"/>
</g>
<path d="M24.8775 28.7844H18.4425C17.914 28.7844 17.4856 29.2375 17.4856 29.7965V31.2596C17.4856 31.8185 17.914 32.2716 18.4425 32.2716H24.8775C25.4059 32.2716 25.8343 31.8185 25.8343 31.2596V29.7965C25.8343 29.2375 25.4059 28.7844 24.8775 28.7844Z" fill="#176D85"/>
<mask id="mask1_220_4250" style="mask-type:luminance" maskUnits="userSpaceOnUse" x="17" y="28" width="9" height="5">
<path d="M24.8775 28.7844H18.4425C17.914 28.7844 17.4856 29.2375 17.4856 29.7965V31.2596C17.4856 31.8185 17.914 32.2716 18.4425 32.2716H24.8775C25.4059 32.2716 25.8343 31.8185 25.8343 31.2596V29.7965C25.8343 29.2375 25.4059 28.7844 24.8775 28.7844Z" fill="white"/>
</mask>
<g mask="url(#mask1_220_4250)">
<path d="M24.8775 27.8846H18.4425C17.914 27.8846 17.4856 28.3377 17.4856 28.8967V30.3598C17.4856 30.9187 17.914 31.3718 18.4425 31.3718H24.8775C25.4059 31.3718 25.8343 30.9187 25.8343 30.3598V28.8967C25.8343 28.3377 25.4059 27.8846 24.8775 27.8846Z" fill="#25B4DC"/>
</g>
<path d="M24.841 29.2773C24.841 29.2773 24.8534 29.3397 24.8527 29.4176C24.8519 29.4947 24.8372 29.5873 24.7805 29.6472C24.727 29.7079 24.6417 29.7259 24.5689 29.7309C24.496 29.735 24.4355 29.7251 24.4355 29.7251C24.4355 29.7251 24.42 29.6644 24.4184 29.5865C24.4169 29.5086 24.4324 29.4135 24.489 29.3487C24.5464 29.2872 24.6348 29.2691 24.7084 29.2667C24.7821 29.2642 24.841 29.2773 24.841 29.2773Z" fill="#1D8DAC"/>
<path d="M19.0915 30.168C19.0915 30.168 19.1039 30.2303 19.1031 30.3082C19.1023 30.3853 19.0868 30.478 19.031 30.5378C18.9775 30.5985 18.8922 30.6166 18.8193 30.6215C18.7464 30.6256 18.686 30.6157 18.686 30.6157C18.686 30.6157 18.6704 30.5551 18.6689 30.4771C18.6673 30.3992 18.6829 30.3041 18.7395 30.2393C18.7968 30.1778 18.8852 30.1598 18.9589 30.1573C19.0326 30.1548 19.0915 30.168 19.0915 30.168Z" fill="#1D8DAC"/>
<path d="M23.709 29.6882C23.709 29.6882 23.7687 29.6792 23.8423 29.6857C23.9152 29.6923 24.0013 29.7144 24.054 29.7776C24.1075 29.8375 24.1191 29.9293 24.1184 30.0072C24.1176 30.0843 24.1036 30.1483 24.1036 30.1483C24.1036 30.1483 24.0455 30.1606 23.9718 30.1565C23.8982 30.1524 23.8098 30.1303 23.7524 30.0655C23.6981 30.0007 23.6872 29.9055 23.6896 29.8284C23.6927 29.7505 23.709 29.689 23.709 29.689V29.6882Z" fill="#1D8DAC"/>
<path d="M33.9561 20.4978H26.7953V32.046H33.9561V20.4978Z" fill="#575961"/>
<mask id="mask2_220_4250" style="mask-type:luminance" maskUnits="userSpaceOnUse" x="27" y="21" width="7" height="11">
<path d="M33.4601 21.0973H27.2918V31.4457H33.4601V21.0973Z" fill="white"/>
</mask>
<g mask="url(#mask2_220_4250)">
<path d="M33.4601 21.0973H27.2918V31.4457H33.4601V21.0973Z" fill="#EAF9FE"/>
<path style="mix-blend-mode:screen" opacity="0.2" d="M32.9089 20.4863L25.2975 28.5367L26.0986 29.384L33.7099 21.3336L32.9089 20.4863Z" fill="url(#paint2_linear_220_4250)"/>
<path style="mix-blend-mode:screen" opacity="0.5" d="M33.5807 23.0424L27.3341 29.6494L27.6784 30.0136L33.925 23.4066L33.5807 23.0424Z" fill="url(#paint3_linear_220_4250)"/>
</g>
<path d="M33.8144 22.2126H26.9374V22.5874H33.8144V22.2126Z" fill="#575961"/>
<path d="M33.8144 22.9163H26.9374V23.2911H33.8144V22.9163Z" fill="#575961"/>
<path d="M33.8144 21.5098H26.9374V21.8846H33.8144V21.5098Z" fill="#575961"/>
<path d="M27.8951 20.9668H27.7353V23.2443H27.8951V20.9668Z" fill="#575961"/>
<path d="M33.0002 20.9668H32.8405V23.2443H33.0002V20.9668Z" fill="#575961"/>
<g style="mix-blend-mode:multiply" opacity="0.3">
<path d="M34.1825 31.8212C34.1825 32.3806 33.8033 32.8333 33.335 32.8333H27.6381C27.1698 32.8333 26.7906 32.3798 26.7906 31.8212V30.359C26.7906 29.7996 27.1698 29.3469 27.6381 29.3469H33.335C33.8033 29.3469 34.1825 29.8005 34.1825 30.359V31.8212Z" fill="#888994"/>
</g>
<path d="M33.7048 28.7844H27.2698C26.7414 28.7844 26.313 29.2375 26.313 29.7965V31.2596C26.313 31.8185 26.7414 32.2716 27.2698 32.2716H33.7048C34.2333 32.2716 34.6617 31.8185 34.6617 31.2596V29.7965C34.6617 29.2375 34.2333 28.7844 33.7048 28.7844Z" fill="#176D85"/>
<mask id="mask3_220_4250" style="mask-type:luminance" maskUnits="userSpaceOnUse" x="26" y="28" width="9" height="5">
<path d="M33.7048 28.7844H27.2698C26.7414 28.7844 26.313 29.2375 26.313 29.7965V31.2596C26.313 31.8185 26.7414 32.2716 27.2698 32.2716H33.7048C34.2333 32.2716 34.6617 31.8185 34.6617 31.2596V29.7965C34.6617 29.2375 34.2333 28.7844 33.7048 28.7844Z" fill="white"/>
</mask>
<g mask="url(#mask3_220_4250)">
<path d="M33.7048 27.8846H27.2698C26.7414 27.8846 26.313 28.3377 26.313 28.8967V30.3598C26.313 30.9187 26.7414 31.3718 27.2698 31.3718H33.7048C34.2333 31.3718 34.6617 30.9187 34.6617 30.3598V28.8967C34.6617 28.3377 34.2333 27.8846 33.7048 27.8846Z" fill="#25B4DC"/>
</g>
<path d="M33.6684 29.2773C33.6684 29.2773 33.6808 29.3397 33.68 29.4176C33.6792 29.4947 33.6645 29.5873 33.6079 29.6472C33.5544 29.7079 33.4691 29.7259 33.3962 29.7309C33.3233 29.735 33.2628 29.7251 33.2628 29.7251C33.2628 29.7251 33.2473 29.6644 33.2458 29.5865C33.2442 29.5086 33.2597 29.4135 33.3163 29.3487C33.3737 29.2872 33.4621 29.2691 33.5358 29.2667C33.6094 29.2642 33.6684 29.2773 33.6684 29.2773Z" fill="#1D8DAC"/>
<path d="M27.9188 30.168C27.9188 30.168 27.9312 30.2303 27.9304 30.3082C27.9297 30.3853 27.9142 30.478 27.8583 30.5378C27.8048 30.5985 27.7195 30.6166 27.6467 30.6215C27.5738 30.6256 27.5133 30.6157 27.5133 30.6157C27.5133 30.6157 27.4978 30.5551 27.4962 30.4771C27.4947 30.3992 27.5102 30.3041 27.5668 30.2393C27.6242 30.1778 27.7126 30.1598 27.7862 30.1573C27.8599 30.1548 27.9188 30.168 27.9188 30.168Z" fill="#1D8DAC"/>
<path d="M32.5363 29.6882C32.5363 29.6882 32.596 29.6792 32.6697 29.6857C32.7426 29.6923 32.8286 29.7144 32.8814 29.7776C32.9349 29.8375 32.9465 29.9293 32.9457 30.0072C32.9449 30.0843 32.931 30.1483 32.931 30.1483C32.931 30.1483 32.8728 30.1606 32.7992 30.1565C32.7255 30.1524 32.6371 30.1303 32.5797 30.0655C32.5255 30.0007 32.5146 29.9055 32.5169 29.8284C32.52 29.7505 32.5363 29.689 32.5363 29.689V29.6882Z" fill="#1D8DAC"/>
<path d="M16.5505 20.4978H10.2404V33.8462H16.5505V20.4978Z" fill="#575961"/>
<path d="M15.9062 21.2473H10.8839V30.4713H15.9062V21.2473Z" fill="#EAF9FE"/>
<path d="M13.6792 20.7971H13.2536V31.8959H13.6792V20.7971Z" fill="#575961"/>
<mask id="mask4_220_4250" style="mask-type:luminance" maskUnits="userSpaceOnUse" x="10" y="21" width="6" height="10">
<path d="M15.9062 21.2473H10.8839V30.4713H15.9062V21.2473Z" fill="white"/>
</mask>
<g mask="url(#mask4_220_4250)">
<path style="mix-blend-mode:screen" opacity="0.5" d="M15.2344 19.4429L8.98778 26.0499L9.3321 26.4141L15.5787 19.8071L15.2344 19.4429Z" fill="url(#paint4_linear_220_4250)"/>
<path style="mix-blend-mode:screen" opacity="0.5" d="M17.0957 26.4733L10.849 33.0803L11.1934 33.4445L17.44 26.8375L17.0957 26.4733Z" fill="url(#paint5_linear_220_4250)"/>
<g style="mix-blend-mode:screen" opacity="0.2">
<path d="M17.1414 23.6923L9.76971 31.4893L10.5708 32.3365L17.9425 24.5395L17.1414 23.6923Z" fill="url(#paint6_linear_220_4250)"/>
</g>
</g>
<path d="M15.2959 25.1282H11.6089V27.2088H15.2959V25.1282Z" fill="#54D1F5"/>
<path d="M12.5895 26.5973C12.5374 26.5973 12.4893 26.5889 12.4453 26.5721C12.4012 26.5554 12.3628 26.5318 12.3299 26.5014C12.2976 26.4704 12.2725 26.4344 12.2545 26.3935C12.2365 26.3525 12.2275 26.3076 12.2275 26.2586C12.2275 26.2096 12.2365 26.1646 12.2545 26.1236C12.2725 26.0827 12.2976 26.047 12.3299 26.0166C12.3628 25.9856 12.4012 25.9617 12.4453 25.945C12.4893 25.9282 12.5374 25.9199 12.5895 25.9199C12.6422 25.9199 12.6903 25.9282 12.7337 25.945C12.7777 25.9617 12.8159 25.9856 12.8482 26.0166C12.8804 26.047 12.9055 26.0827 12.9235 26.1236C12.9421 26.1646 12.9514 26.2096 12.9514 26.2586C12.9514 26.3076 12.9421 26.3529 12.9235 26.3944C12.9055 26.4354 12.8804 26.471 12.8482 26.5014C12.8159 26.5318 12.7777 26.5554 12.7337 26.5721C12.6903 26.5889 12.6422 26.5973 12.5895 26.5973ZM12.5895 26.4447C12.6143 26.4447 12.6372 26.4403 12.6583 26.4316C12.68 26.4229 12.6987 26.4105 12.7142 26.3944C12.7303 26.3777 12.7427 26.3578 12.7514 26.3349C12.7607 26.3119 12.7653 26.2865 12.7653 26.2586C12.7653 26.23 12.7607 26.2046 12.7514 26.1823C12.7427 26.1593 12.7303 26.1398 12.7142 26.1236C12.6987 26.1069 12.68 26.0942 12.6583 26.0855C12.6372 26.0768 12.6143 26.0725 12.5895 26.0725C12.5647 26.0725 12.5414 26.0768 12.5197 26.0855C12.4986 26.0942 12.48 26.1069 12.4639 26.1236C12.4484 26.1398 12.436 26.1593 12.4266 26.1823C12.418 26.2046 12.4136 26.23 12.4136 26.2586C12.4136 26.2865 12.418 26.3119 12.4266 26.3349C12.436 26.3578 12.4484 26.3777 12.4639 26.3944C12.48 26.4105 12.4986 26.4229 12.5197 26.4316C12.5414 26.4403 12.5647 26.4447 12.5895 26.4447ZM13.0479 26.5842V25.9329H13.3457C13.4052 25.9329 13.4564 25.9425 13.4992 25.9617C13.5426 25.981 13.5761 26.0089 13.5997 26.0455C13.6233 26.0815 13.6351 26.1243 13.6351 26.1739C13.6351 26.2229 13.6233 26.2654 13.5997 26.3014C13.5761 26.3373 13.5426 26.3653 13.4992 26.3851C13.4564 26.4043 13.4052 26.414 13.3457 26.414H13.1503L13.2322 26.3339V26.5842H13.0479ZM13.2322 26.3535L13.1503 26.2688H13.3345C13.373 26.2688 13.4015 26.2604 13.4201 26.2437C13.4393 26.2269 13.449 26.2037 13.449 26.1739C13.449 26.1435 13.4393 26.1199 13.4201 26.1032C13.4015 26.0864 13.373 26.0781 13.3345 26.0781H13.1503L13.2322 25.9934V26.3535ZM13.8942 26.1851H14.1966V26.3228H13.8942V26.1851ZM13.9073 26.4419H14.2478V26.5842H13.7249V25.9329H14.2357V26.0753H13.9073V26.4419ZM14.35 26.5842V25.9329H14.5017L14.8609 26.3665H14.7892V25.9329H14.9697V26.5842H14.8181L14.4589 26.1506H14.5306V26.5842H14.35Z" fill="white"/>
<path d="M12.0361 25.344L13.4528 23.8464L14.8687 25.344" stroke="#54D1F5" stroke-width="0.0775394" stroke-miterlimit="10"/>
<path opacity="0.3" d="M15.9062 31.0897H10.8839V33.1335H15.9062V31.0897Z" fill="white" stroke="#54D1F5" stroke-width="0.0775394" stroke-miterlimit="10"/>
<path d="M11.7446 17.0778V9.43005H7.50321V17.0778H7.50089C7.50089 18.3178 8.45152 19.3233 9.62391 19.3233C10.7963 19.3233 11.7469 18.3178 11.7469 17.0778H11.7446Z" fill="#25B4DC"/>
<path d="M15.8697 17.0778V9.43005H11.6283V17.0778H11.626C11.626 18.3178 12.5766 19.3233 13.749 19.3233C14.9214 19.3233 15.8721 18.3178 15.8721 17.0778H15.8697Z" fill="#EAF9FE"/>
<path d="M19.9948 17.0778V9.43005H15.7534V17.0778H15.7511C15.7511 18.3178 16.7017 19.3233 17.8741 19.3233C19.0465 19.3233 19.9972 18.3178 19.9972 17.0778H19.9948Z" fill="#25B4DC"/>
<path d="M24.1199 17.0778V9.43005H19.8785V17.0778H19.8762C19.8762 18.3178 20.8268 19.3233 21.9992 19.3233C23.1716 19.3233 24.1222 18.3178 24.1222 17.0778H24.1199Z" fill="#EAF9FE"/>
<path d="M28.2458 17.0778V9.43005H24.0044V17.0778H24.0021C24.0021 18.3178 24.9527 19.3233 26.1251 19.3233C27.2975 19.3233 28.2481 18.3178 28.2481 17.0778H28.2458Z" fill="#25B4DC"/>
<path d="M32.3709 17.0778V9.43005H28.1295V17.0778H28.1272C28.1272 18.3178 29.0778 19.3233 30.2502 19.3233C31.4226 19.3233 32.3732 18.3178 32.3732 17.0778H32.3709Z" fill="#EAF9FE"/>
<path d="M36.496 17.0778V9.43005H32.2546V17.0778H32.2522C32.2522 18.3178 33.2029 19.3233 34.3753 19.3233C35.5477 19.3233 36.4983 18.3178 36.4983 17.0778H36.496Z" fill="#25B4DC"/>
<path d="M36.5014 8.46155H7.49858V9.51131H36.5014V8.46155Z" fill="#25B4DC"/>
<mask id="mask5_220_4250" style="mask-type:luminance" maskUnits="userSpaceOnUse" x="7" y="9" width="30" height="11">
<path d="M36.496 17.0777V9.43005H32.2546H28.2458H24.1207H19.8793H15.8705H7.504V17.0777H7.50168C7.50168 18.3178 8.45231 19.3233 9.62471 19.3233C10.6265 19.3233 11.4639 18.5884 11.6873 17.6018C11.9106 18.5884 12.748 19.3233 13.7498 19.3233C14.7516 19.3233 15.589 18.5884 15.8124 17.6018C16.0357 18.5884 16.8731 19.3233 17.8749 19.3233C18.8767 19.3233 19.7141 18.5884 19.9374 17.6018C20.1608 18.5884 20.9982 19.3233 22 19.3233C23.0018 19.3233 23.8392 18.5884 24.0625 17.6018C24.2859 18.5892 25.1233 19.3233 26.1251 19.3233C27.1269 19.3233 27.9643 18.5884 28.1876 17.6018C28.411 18.5884 29.2484 19.3233 30.2502 19.3233C31.252 19.3233 32.0894 18.5884 32.3127 17.6018C32.5361 18.5884 33.3735 19.3233 34.3753 19.3233C35.5477 19.3233 36.4983 18.3178 36.4983 17.0777H36.496Z" fill="white"/>
</mask>
<g mask="url(#mask5_220_4250)">
<g style="mix-blend-mode:multiply" opacity="0.3">
<path d="M39.8759 16.4102H6.69528V21.5097H39.8759V16.4102Z" fill="#888994"/>
</g>
</g>
<rect x="2.39999" y="32" width="39.2" height="1.6" fill="#176D85"/>
<defs>
<linearGradient id="paint0_linear_220_4250" x1="24.4875" y1="21.0079" x2="16.4803" y2="28.5783" gradientUnits="userSpaceOnUse">
<stop stop-color="white"/>
<stop offset="1"/>
</linearGradient>
<linearGradient id="paint1_linear_220_4250" x1="24.7477" y1="23.1741" x2="18.1966" y2="29.3678" gradientUnits="userSpaceOnUse">
<stop stop-color="white"/>
<stop offset="1"/>
</linearGradient>
<linearGradient id="paint2_linear_220_4250" x1="33.2901" y1="21.0181" x2="25.2829" y2="28.5886" gradientUnits="userSpaceOnUse">
<stop stop-color="white"/>
<stop offset="1"/>
</linearGradient>
<linearGradient id="paint3_linear_220_4250" x1="33.5819" y1="23.2457" x2="27.0308" y2="29.4394" gradientUnits="userSpaceOnUse">
<stop stop-color="white"/>
<stop offset="1"/>
</linearGradient>
<linearGradient id="paint4_linear_220_4250" x1="15.1961" y1="19.4959" x2="8.64498" y2="25.6896" gradientUnits="userSpaceOnUse">
<stop stop-color="white"/>
<stop offset="1"/>
</linearGradient>
<linearGradient id="paint5_linear_220_4250" x1="17.1095" y1="26.546" x2="10.5585" y2="32.7398" gradientUnits="userSpaceOnUse">
<stop stop-color="white"/>
<stop offset="1"/>
</linearGradient>
<linearGradient id="paint6_linear_220_4250" x1="17.54" y1="24.2294" x2="9.82364" y2="31.5249" gradientUnits="userSpaceOnUse">
<stop stop-color="white"/>
<stop offset="1"/>
</linearGradient>
</defs>
</svg>
