<svg width="25" height="25" viewBox="0 0 25 25" fill="none" xmlns="http://www.w3.org/2000/svg">
<path d="M17.2684 8.26056H18.6455C18.7649 8.26056 18.8308 8.39774 18.7578 8.49038L12.4849 16.5217C12.4318 16.5899 12.3638 16.6451 12.2862 16.6831C12.2085 16.7211 12.1232 16.7408 12.0368 16.7408C11.9504 16.7408 11.8651 16.7211 11.7874 16.6831C11.7097 16.6451 11.6418 16.5899 11.5887 16.5217L5.31583 8.49038C5.24279 8.39596 5.30871 8.26056 5.42807 8.26056H6.80523C6.89252 8.26056 6.97625 8.30154 7.0297 8.36924L12.0359 14.7829L17.0439 8.36924C17.0973 8.30154 17.1811 8.26056 17.2684 8.26056Z" fill="#1B1B1F"/>
</svg>
