<svg width="25" height="25" viewBox="0 0 25 25" fill="none" xmlns="http://www.w3.org/2000/svg">
<path d="M6.80524 16.7408H5.42809C5.30873 16.7408 5.24281 16.6037 5.31585 16.511L11.5887 8.47972C11.6418 8.41148 11.7098 8.35627 11.7874 8.31828C11.8651 8.2803 11.9504 8.26056 12.0368 8.26056C12.1233 8.26056 12.2086 8.2803 12.2862 8.31828C12.3639 8.35627 12.4318 8.41148 12.4849 8.47972L18.7578 16.511C18.8308 16.6054 18.7649 16.7408 18.6455 16.7408H17.2684C17.1811 16.7408 17.0974 16.6999 17.0439 16.6322L12.0377 10.2185L7.02972 16.6322C6.97627 16.6999 6.89254 16.7408 6.80524 16.7408Z" fill="#1B1B1F"/>
</svg>
