<svg width="21" height="20" viewBox="0 0 21 20" fill="none" xmlns="http://www.w3.org/2000/svg">
<path d="M2.1665 9.55002V13.7167C2.1665 15.625 3.70817 17.1667 5.6165 17.1667H15.3748C17.2832 17.1667 18.8332 15.6167 18.8332 13.7084V9.55002C18.8332 8.99169 18.3832 8.54169 17.8248 8.54169H3.17484C2.6165 8.54169 2.1665 8.99169 2.1665 9.55002ZM7.1665 14.375H5.49984C5.15817 14.375 4.87484 14.0917 4.87484 13.75C4.87484 13.4084 5.15817 13.125 5.49984 13.125H7.1665C7.50817 13.125 7.7915 13.4084 7.7915 13.75C7.7915 14.0917 7.50817 14.375 7.1665 14.375ZM12.5832 14.375H9.24984C8.90817 14.375 8.62484 14.0917 8.62484 13.75C8.62484 13.4084 8.90817 13.125 9.24984 13.125H12.5832C12.9248 13.125 13.2082 13.4084 13.2082 13.75C13.2082 14.0917 12.9248 14.375 12.5832 14.375Z" fill="#29C6F2"/>
<path d="M11.7498 3.84171V6.28337C11.7498 6.84171 11.2998 7.29171 10.7415 7.29171H3.17484C2.60817 7.29171 2.1665 6.82504 2.1665 6.26671C2.17484 5.32504 2.54984 4.46671 3.17484 3.84171C3.79984 3.21671 4.6665 2.83337 5.6165 2.83337H10.7415C11.2998 2.83337 11.7498 3.28337 11.7498 3.84171Z" fill="#29C6F2"/>
<path d="M17.1417 1.66669H14.6917C13.6333 1.66669 13 2.30002 13 3.35835V5.80835C13 6.86669 13.6333 7.50002 14.6917 7.50002H17.1417C18.2 7.50002 18.8333 6.86669 18.8333 5.80835V3.35835C18.8333 2.30002 18.2 1.66669 17.1417 1.66669ZM17.925 4.94169C17.8417 5.02502 17.7167 5.08335 17.5833 5.09169H16.4083L16.4167 6.25002C16.4083 6.39169 16.3583 6.50835 16.2583 6.60835C16.175 6.69169 16.05 6.75002 15.9167 6.75002C15.6417 6.75002 15.4167 6.52502 15.4167 6.25002V5.08335L14.25 5.09169C13.975 5.09169 13.75 4.85835 13.75 4.58335C13.75 4.30835 13.975 4.08335 14.25 4.08335L15.4167 4.09169V2.92502C15.4167 2.65002 15.6417 2.41669 15.9167 2.41669C16.1917 2.41669 16.4167 2.65002 16.4167 2.92502L16.4083 4.08335H17.5833C17.8583 4.08335 18.0833 4.30835 18.0833 4.58335C18.075 4.72502 18.0167 4.84169 17.925 4.94169Z" fill="#29C6F2"/>
</svg>
