<svg width="21" height="20" viewBox="0 0 21 20" fill="none" xmlns="http://www.w3.org/2000/svg">
<path d="M17.8438 15.4688H4.40625V3.28125C4.40625 3.19531 4.33594 3.125 4.25 3.125H3.15625C3.07031 3.125 3 3.19531 3 3.28125V16.7188C3 16.8047 3.07031 16.875 3.15625 16.875H17.8438C17.9297 16.875 18 16.8047 18 16.7188V15.625C18 15.5391 17.9297 15.4688 17.8438 15.4688ZM6.125 13.9063H7.21875C7.30469 13.9063 7.375 13.8359 7.375 13.75V10.9375C7.375 10.8516 7.30469 10.7813 7.21875 10.7813H6.125C6.03906 10.7813 5.96875 10.8516 5.96875 10.9375V13.75C5.96875 13.8359 6.03906 13.9063 6.125 13.9063ZM9.09375 13.9063H10.1875C10.2734 13.9063 10.3438 13.8359 10.3438 13.75V7.5C10.3438 7.41406 10.2734 7.34375 10.1875 7.34375H9.09375C9.00781 7.34375 8.9375 7.41406 8.9375 7.5V13.75C8.9375 13.8359 9.00781 13.9063 9.09375 13.9063ZM12.0625 13.9063H13.1563C13.2422 13.9063 13.3125 13.8359 13.3125 13.75V9.02344C13.3125 8.9375 13.2422 8.86719 13.1563 8.86719H12.0625C11.9766 8.86719 11.9063 8.9375 11.9063 9.02344V13.75C11.9063 13.8359 11.9766 13.9063 12.0625 13.9063ZM15.0313 13.9063H16.125C16.2109 13.9063 16.2813 13.8359 16.2813 13.75V5.9375C16.2813 5.85156 16.2109 5.78125 16.125 5.78125H15.0313C14.9453 5.78125 14.875 5.85156 14.875 5.9375V13.75C14.875 13.8359 14.9453 13.9063 15.0313 13.9063Z" fill="#29C6F2"/>
</svg>
