<svg width="21" height="20" viewBox="0 0 21 20" fill="none" xmlns="http://www.w3.org/2000/svg">
<rect x="4.5" y="4" width="12" height="12" fill="white"/>
<path fill-rule="evenodd" clip-rule="evenodd" d="M10.5 20C13.1522 20 15.6957 18.9464 17.5711 17.0711C19.4464 15.1957 20.5 12.6522 20.5 10C20.5 7.34784 19.4464 4.8043 17.5711 2.92893C15.6957 1.05357 13.1522 0 10.5 0C7.84784 0 5.3043 1.05357 3.42893 2.92893C1.55357 4.8043 0.5 7.34784 0.5 10C0.5 12.6522 1.55357 15.1957 3.42893 17.0711C5.3043 18.9464 7.84784 20 10.5 20ZM15.1337 8.38375C15.3614 8.148 15.4874 7.83224 15.4846 7.5045C15.4817 7.17675 15.3503 6.86324 15.1185 6.63148C14.8868 6.39972 14.5732 6.26826 14.2455 6.26541C13.9178 6.26256 13.602 6.38855 13.3663 6.61625L9.25 10.7325L7.63375 9.11625C7.398 8.88855 7.08224 8.76256 6.7545 8.76541C6.42675 8.76826 6.11324 8.89972 5.88148 9.13148C5.64972 9.36324 5.51826 9.67675 5.51541 10.0045C5.51256 10.3322 5.63855 10.648 5.86625 10.8837L8.36625 13.3837C8.60066 13.6181 8.91854 13.7497 9.25 13.7497C9.58146 13.7497 9.89934 13.6181 10.1337 13.3837L15.1337 8.38375Z" fill="#29C6F2"/>
</svg>
