<svg width="44" height="44" viewBox="0 0 44 44" fill="none" xmlns="http://www.w3.org/2000/svg">
<g clip-path="url(#clip0_220_4176)">
<circle cx="22" cy="22" r="22" fill="#EAF9FE"/>
<circle cx="29.839" cy="14.1609" r="2.27586" fill="white"/>
<path d="M16.2374 15.6447C12.7322 15.6447 9.9072 18.4738 9.9072 21.9748C9.9072 26.7027 16.2374 34.1303 16.2374 34.1303C16.2374 34.1303 22.5258 25.7721 22.5676 21.9748C22.6093 18.4697 19.6967 15.6447 16.2374 15.6447Z" fill="white"/>
<path d="M19.4004 19.3586V25.693H13.0702V19.3586H15.1817V21.4701H17.289V19.3586H19.4004Z" fill="#9DE5F9"/>
<path d="M17.293 19.3586H15.1816V21.47H17.293V19.3586Z" fill="#9DE5F9"/>
<path d="M29.9953 9.86121C32.2736 9.86121 34.1723 11.7181 34.1723 14.0382C34.1305 16.5294 29.9953 22.0167 29.9953 22.0167C29.9953 22.0167 25.86 17.1219 25.8141 13.9965C25.8141 11.7181 27.671 9.86121 29.9953 9.86121ZM32.065 14.0841C32.065 12.9032 31.1344 11.9727 29.9535 11.9727C28.7726 11.9727 27.8421 12.9032 27.8421 14.0841C27.8421 15.265 28.7726 16.1956 29.9535 16.1956C31.1344 16.1956 32.065 15.2233 32.065 14.0841Z" fill="white"/>
<path d="M16.2373 34.6395C16.0703 34.6395 15.941 34.556 15.8158 34.4725C15.5613 34.1763 9.35626 26.8738 9.35626 21.9791C9.35626 20.1639 10.074 18.4322 11.3384 17.1261C12.6486 15.8158 14.3762 15.0981 16.1914 15.0981C18.0065 15.0981 19.78 15.8158 21.0861 17.1678C22.3505 18.4781 23.0682 20.1639 23.0265 21.9791C23.0265 25.9057 16.9049 34.0928 16.6086 34.4308C16.5252 34.556 16.3958 34.6436 16.2289 34.6436L16.2373 34.6395ZM16.2373 16.1914C14.6766 16.1914 13.1994 16.7839 12.102 17.9231C11.0045 19.0205 10.412 20.456 10.412 22.0166C10.412 25.8139 14.8018 31.5557 16.1955 33.2875C16.7422 32.4863 17.8438 30.9674 18.9412 29.2356C20.9692 25.985 22.0208 23.4938 22.0667 22.0166C22.1084 20.4977 21.5201 19.0623 20.4184 17.9648C19.2793 16.7839 17.8021 16.1914 16.2414 16.1914H16.2373Z" fill="#1D8DAC"/>
<path d="M29.9951 22.5258C29.824 22.5258 29.6988 22.4423 29.5736 22.3589C29.4025 22.1461 25.309 17.293 25.2673 14.0424C25.2673 12.778 25.7304 11.6347 26.6193 10.75C27.5039 9.86541 28.689 9.35632 29.9533 9.35632C31.2177 9.35632 32.4028 9.86123 33.3292 10.75C34.2138 11.6347 34.6812 12.8198 34.6812 14.0424C34.6812 15.1816 33.9217 16.9133 32.528 19.2334C31.4722 20.9234 30.4582 22.2712 30.4165 22.313C30.3331 22.4382 30.162 22.4799 29.9951 22.5258ZM29.9951 10.3703C29.0228 10.3703 28.0964 10.75 27.4204 11.426C26.7444 12.102 26.3647 13.0284 26.3647 14.0007C26.3647 16.3208 28.9394 19.7842 29.9951 21.1362C31.3054 19.321 33.6254 15.7324 33.6672 14.0007C33.6672 13.0284 33.3292 12.1438 32.6532 11.4678C31.8937 10.75 30.9632 10.3703 29.9951 10.3703Z" fill="#1D8DAC"/>
<path d="M29.9535 16.7004C28.518 16.7004 27.2954 15.5195 27.2954 14.0423C27.2954 12.5651 28.4763 11.3842 29.9535 11.3842C31.4307 11.3842 32.6116 12.5651 32.6116 14.0423C32.6116 15.5195 31.3889 16.7004 29.9535 16.7004ZM29.9535 12.4775C29.0688 12.4775 28.3511 13.1952 28.3511 14.0799C28.3511 14.9645 29.0688 15.6822 29.9535 15.6822C30.8381 15.6822 31.5559 14.9645 31.5559 14.0799C31.5559 13.1952 30.7964 12.4775 29.9535 12.4775Z" fill="#1D8DAC"/>
<path d="M19.4003 26.1978H13.0701C12.7738 26.1978 12.5235 25.9433 12.5235 25.647V19.3168C12.5235 19.0206 12.778 18.7702 13.0701 18.7702H15.1816C15.4778 18.7702 15.7282 19.0247 15.7282 19.3168C15.7282 19.6089 15.4737 19.8635 15.1816 19.8635H13.5792V25.1421H18.8578V19.8635H17.2555C16.9592 19.8635 16.7088 19.6089 16.7088 19.3168C16.7088 19.0247 16.9634 18.7702 17.2555 18.7702H19.3669C19.6632 18.7702 19.9135 19.0247 19.9135 19.3168V25.647C19.9135 25.9433 19.659 26.1978 19.4086 26.1978H19.4003Z" fill="#1D8DAC"/>
<path d="M17.2889 21.9749H15.1774C14.8811 21.9749 14.6266 21.7204 14.6266 21.4283V19.3168C14.6266 19.0206 14.8811 18.7702 15.1774 18.7702H17.2889C17.5851 18.7702 17.8397 19.0247 17.8397 19.3168V21.4283C17.7979 21.7246 17.5434 21.9749 17.2889 21.9749ZM15.6865 20.9192H16.7422V19.8635H15.6865V20.9192Z" fill="#1D8DAC"/>
<path d="M26.7905 29.365H24.6791C24.3828 29.365 24.1282 29.1104 24.1282 28.8183V24.5954C24.1282 24.2991 24.3828 24.0446 24.6791 24.0446H29.4069V21.9331C29.4069 21.6369 29.6614 21.3823 29.9577 21.3823C30.254 21.3823 30.5085 21.6369 30.5085 21.9331V24.5912C30.5085 24.8875 30.254 25.142 29.9577 25.142H25.1882V28.3092H26.7905C27.0868 28.3092 27.3413 28.5638 27.3413 28.8559C27.2996 29.1104 27.045 29.3608 26.7905 29.3608V29.365Z" fill="#1D8DAC"/>
<path d="M31.518 34.6394H16.2371C15.9409 34.6394 15.6905 34.3848 15.6905 34.0927C15.6905 33.8006 15.945 33.5419 16.2371 33.5419H31.0131V29.3649H29.9574C29.6611 29.3649 29.4066 29.1104 29.4066 28.8183C29.4066 28.5262 29.6611 28.2675 29.9574 28.2675H31.518C31.8143 28.2675 32.0647 28.522 32.0647 28.8183V34.0927C32.0647 34.389 31.8101 34.6394 31.518 34.6394Z" fill="#1D8DAC"/>
</g>
<defs>
<clipPath id="clip0_220_4176">
<rect width="44" height="44" fill="white"/>
</clipPath>
</defs>
</svg>
