<svg width="44" height="44" viewBox="0 0 44 44" fill="none" xmlns="http://www.w3.org/2000/svg">
<rect width="44" height="44" rx="22" fill="#EAF9FE"/>
<path d="M30.5273 10H14.4557C14.0139 10 13.6557 10.3582 13.6557 10.8V33.2C13.6557 33.6418 14.0139 34 14.4557 34H30.5273C30.9691 34 31.3273 33.6418 31.3273 33.2V10.8C31.3273 10.3582 30.9691 10 30.5273 10Z" fill="white" stroke="#1D8DAC" stroke-width="0.64" stroke-linecap="round" stroke-linejoin="round"/>
<path d="M15.9646 11.4177V32.5823" stroke="#1D8DAC" stroke-width="0.64" stroke-linecap="round" stroke-linejoin="round"/>
<path d="M21.9064 17.9962C21.686 16.401 20.9698 15.432 20.1004 15.432C19.1839 15.432 18.535 16.5453 18.2936 17.9962C17.8598 20.5893 19.6876 20.5299 19.6876 21.6012V29.2817C19.6876 29.5135 19.8739 29.6997 20.1066 29.6997C20.3392 29.6997 20.5255 29.5135 20.5255 29.2817V21.5522C20.5255 20.5587 22.2283 20.3261 21.9064 17.9953V17.9962Z" fill="#1D8DAC"/>
<path d="M25.7143 15.4189C25.5324 15.4189 25.3864 15.5649 25.3864 15.7468V18.8734H24.8223V15.7468C24.8223 15.5649 24.6745 15.4189 24.4952 15.4189C24.3159 15.4189 24.1663 15.5649 24.1663 15.7468V18.8734H23.6022V15.7468C23.6022 15.5649 23.4544 15.4189 23.2743 15.4189C23.0941 15.4189 22.9472 15.5649 22.9472 15.7468V19.4279H22.9498C22.9699 19.8739 23.3075 20.1547 23.6687 20.3812C23.9669 20.5666 24.1077 20.8736 24.1077 21.2418V29.2607C24.1077 29.5038 24.2949 29.7015 24.5267 29.7015C24.7584 29.7015 24.9456 29.5047 24.9456 29.2607V21.1902C24.9456 20.8779 25.0339 20.5666 25.3006 20.3873C25.6618 20.1459 26.0213 19.88 26.0405 19.4279H26.0432V15.7468C26.0432 15.5649 25.8954 15.4189 25.7152 15.4189H25.7143Z" fill="#1D8DAC"/>
<path d="M28.2549 15.4363C27.0165 15.4363 26.8609 21.8574 26.8609 22.4627C26.8609 23.0679 27.1871 23.5576 27.5903 23.5576H28.1447V29.2651C28.1447 29.5038 28.3328 29.6997 28.5637 29.6997C28.7945 29.6997 28.9843 29.5038 28.9843 29.2651V16.5322C28.9843 15.9261 28.6581 15.4363 28.2558 15.4363H28.2549Z" fill="#1D8DAC"/>
<path d="M12.6727 11.4614H14.7402" stroke="#1D8DAC" stroke-width="0.64" stroke-linecap="round" stroke-linejoin="round"/>
<path d="M12.6727 13.0846H14.7402" stroke="#1D8DAC" stroke-width="0.64" stroke-linecap="round" stroke-linejoin="round"/>
<path d="M12.6727 14.7043H14.7402" stroke="#1D8DAC" stroke-width="0.64" stroke-linecap="round" stroke-linejoin="round"/>
<path d="M12.6727 16.3266H14.7402" stroke="#1D8DAC" stroke-width="0.64" stroke-linecap="round" stroke-linejoin="round"/>
<path d="M12.6727 17.9481H14.7402" stroke="#1D8DAC" stroke-width="0.64" stroke-linecap="round" stroke-linejoin="round"/>
<path d="M12.6727 19.5687H14.7402" stroke="#1D8DAC" stroke-width="0.64" stroke-linecap="round" stroke-linejoin="round"/>
<path d="M12.6727 21.1901H14.7402" stroke="#1D8DAC" stroke-width="0.64" stroke-linecap="round" stroke-linejoin="round"/>
<path d="M12.6727 22.8107H14.7402" stroke="#1D8DAC" stroke-width="0.64" stroke-linecap="round" stroke-linejoin="round"/>
<path d="M12.6727 24.4313H14.7402" stroke="#1D8DAC" stroke-width="0.64" stroke-linecap="round" stroke-linejoin="round"/>
<path d="M12.6727 26.0536H14.7402" stroke="#1D8DAC" stroke-width="0.64" stroke-linecap="round" stroke-linejoin="round"/>
<path d="M12.6727 27.6742H14.7402" stroke="#1D8DAC" stroke-width="0.64" stroke-linecap="round" stroke-linejoin="round"/>
<path d="M12.6727 29.2957H14.7402" stroke="#1D8DAC" stroke-width="0.64" stroke-linecap="round" stroke-linejoin="round"/>
<path d="M12.6727 30.9163H14.7402" stroke="#1D8DAC" stroke-width="0.64" stroke-linecap="round" stroke-linejoin="round"/>
<path d="M12.6727 32.5368H14.7402" stroke="#1D8DAC" stroke-width="0.64" stroke-linecap="round" stroke-linejoin="round"/>
</svg>
