<svg width="20" height="21" viewBox="0 0 20 21" fill="none" xmlns="http://www.w3.org/2000/svg">
<path fill-rule="evenodd" clip-rule="evenodd" d="M5.75747 5.31981C6.88267 4.1546 8.40878 3.5 10.0001 3.5C11.5913 3.5 13.1175 4.1546 14.2427 5.31981C15.3679 6.48501 16 8.06536 16 9.7132C16 11.361 15.3679 12.9414 14.2427 14.1066L10.0001 18.5L5.75747 14.1066C5.20029 13.5297 4.7583 12.8447 4.45675 12.0909C4.15521 11.3371 4 10.5291 4 9.7132C4 8.89726 4.15521 8.08931 4.45675 7.33549C4.7583 6.58167 5.20029 5.89673 5.75747 5.31981ZM10.0001 11.4883C10.4547 11.4883 10.8907 11.3013 11.2122 10.9684C11.5336 10.6355 11.7142 10.184 11.7142 9.7132C11.7142 9.24242 11.5336 8.79091 11.2122 8.45801C10.8907 8.12511 10.4547 7.93809 10.0001 7.93809C9.54543 7.93809 9.10943 8.12511 8.78796 8.45801C8.46648 8.79091 8.28588 9.24242 8.28588 9.7132C8.28588 10.184 8.46648 10.6355 8.78796 10.9684C9.10943 11.3013 9.54543 11.4883 10.0001 11.4883Z" fill="#29C6F2"/>
</svg>
