<svg width="25" height="25" viewBox="0 0 25 25" fill="none" xmlns="http://www.w3.org/2000/svg">
<path d="M16.4062 8.19824C16.4062 9.97559 14.0267 13.1429 12.9818 14.4189C12.7311 14.7607 12.2689 14.7607 12.0182 14.4189C10.9733 13.1429 8.59375 9.97559 8.59375 8.19824C8.59375 6.04102 10.3418 4.29199 12.5 4.29199C14.6582 4.29199 16.4062 6.04102 16.4062 8.19824ZM12.5 9.23991C13.2194 9.23991 13.8021 8.65723 13.8021 7.93783C13.8021 7.21875 13.2194 6.63574 12.5 6.63574C11.7806 6.63574 11.1979 7.21875 11.1979 7.93783C11.1979 8.65723 11.7806 9.23991 12.5 9.23991ZM16.9792 10.1449C16.9954 10.1058 17.0117 10.0667 17.028 10.0244L20.804 8.514C21.3184 8.30892 21.875 8.68652 21.875 9.23991V18.055C21.875 18.374 21.6797 18.6605 21.3835 18.7809L16.6667 20.6657V10.8154C16.7806 10.5908 16.8848 10.3695 16.9792 10.1449ZM8.02083 10.1449C8.11523 10.3695 8.2194 10.5908 8.33333 10.8154V18.999L4.19629 20.6559C3.68327 20.8317 3.125 20.4834 3.125 19.93V11.1149C3.125 10.7959 3.3195 10.4801 3.61621 10.389L7.60417 8.79395C7.68229 9.25618 7.8418 9.71517 8.02083 10.1449ZM13.7956 15.07C14.248 14.5329 14.9577 13.6117 15.625 12.5928V20.708L9.375 18.9209V12.5928C10.0423 13.6117 10.752 14.5329 11.2044 15.07C11.8717 15.9326 13.1283 15.9326 13.7956 15.07Z" fill="#FFFF"/>
</svg>
