<svg width="width" height="heigth" viewBox="0 0 21 20" fill="none" xmlns="http://www.w3.org/2000/svg">
<path d="M10.4999 3.875C6.51657 3.875 3.2749 7.11667 3.2749 11.1C3.2749 15.0833 6.51657 18.3333 10.4999 18.3333C14.4832 18.3333 17.7249 15.0917 17.7249 11.1083C17.7249 7.125 14.4832 3.875 10.4999 3.875ZM11.1249 10.8333C11.1249 11.175 10.8416 11.4583 10.4999 11.4583C10.1582 11.4583 9.8749 11.175 9.8749 10.8333V6.66667C9.8749 6.325 10.1582 6.04167 10.4999 6.04167C10.8416 6.04167 11.1249 6.325 11.1249 6.66667V10.8333Z" fill="#29C6F2"/>
<path d="M12.9084 2.87499H8.0917C7.75837 2.87499 7.4917 2.60832 7.4917 2.27499C7.4917 1.94166 7.75837 1.66666 8.0917 1.66666H12.9084C13.2417 1.66666 13.5084 1.93332 13.5084 2.26666C13.5084 2.59999 13.2417 2.87499 12.9084 2.87499Z" fill="#29C6F2"/>
</svg>
