<svg width="44" height="44" viewBox="0 0 44 44" fill="none" xmlns="http://www.w3.org/2000/svg">
<rect width="44" height="44" rx="22" fill="#EAF9FE"/>
<rect opacity="0.54" x="2.39999" y="34.4" width="39.2" height="1.6" fill="#115366"/>
<path d="M32.3707 34.9481C30.4386 34.695 29.0775 32.9235 29.3307 30.9914C29.5838 29.0593 31.3553 27.6982 33.2874 27.9513C35.2195 28.2045 36.5806 29.976 36.3275 31.9081C36.0743 33.8402 34.3028 35.2013 32.3707 34.9481Z" fill="#115366"/>
<path d="M31.0279 31.4489C31.0279 31.7519 31.1029 32.0375 31.2352 32.2876C31.2438 32.3039 31.2527 32.3199 31.262 32.3358C31.5705 32.8804 32.1556 33.2476 32.8262 33.2476C33.8197 33.2476 34.625 32.4424 34.625 31.4489C34.625 30.7005 34.1679 30.059 33.5175 29.7886C33.5108 29.7855 33.5038 29.7828 33.4968 29.78C33.2895 29.6964 33.0631 29.6505 32.8262 29.6505C31.8331 29.6505 31.0279 30.4557 31.0279 31.4489Z" fill="#EAF9FE"/>
<path d="M32.9415 31.9526C33.2493 31.8543 33.4191 31.5252 33.3208 31.2174L31.9456 26.9113L30.8311 27.2672L32.2063 31.5733C32.3046 31.881 32.6337 32.0509 32.9415 31.9526Z" fill="#70D9F6"/>
<path d="M31.3155 28.7835L30.8313 27.2672L31.9457 26.9113L32.6095 28.9897C32.2519 28.8244 31.8142 28.7177 31.3155 28.7835Z" fill="#25B4DC"/>
<path d="M30.3133 17.4823C29.672 17.4823 29.1521 16.9499 29.1521 16.2932C29.1521 15.6365 29.672 15.1041 30.3133 15.1041C30.9545 15.1041 31.4744 15.6365 31.4744 16.2932C31.4744 16.9499 30.9545 17.4823 30.3133 17.4823Z" fill="#29C6F2"/>
<path d="M12.8314 34.9719C10.8888 34.8176 9.43907 33.1176 9.59341 31.175C9.74774 29.2324 11.4476 27.7827 13.3903 27.937C15.3329 28.0913 16.7825 29.7912 16.6282 31.7339C16.4739 33.6765 14.774 35.1262 12.8314 34.9719Z" fill="#115366"/>
<path d="M13.1123 33.2476C12.119 33.2476 11.3137 32.4423 11.3137 31.449C11.3137 30.4556 12.119 29.6503 13.1123 29.6503C14.1057 29.6503 14.9109 30.4556 14.9109 31.449C14.9109 32.4423 14.1057 33.2476 13.1123 33.2476Z" fill="#EAF9FE"/>
<path d="M31.2485 26.4685C31.7468 26.3098 32.277 26.2246 32.8267 26.2246C33.2149 26.2246 33.5938 26.2674 33.9579 26.3483C36.0476 26.8113 37.6701 28.5299 37.9922 30.6682C38.0541 31.0794 37.734 31.4489 37.3181 31.4489H37.2952C37.0711 31.4489 36.8859 31.2777 36.8645 31.0544C36.6654 29.0017 34.9304 27.3916 32.8267 27.3916C32.1985 27.3916 31.6029 27.5352 31.0715 27.7911C29.7108 28.447 28.7695 29.84 28.7695 31.4489H27.6024C27.6023 29.118 29.1366 27.1387 31.2485 26.4685Z" fill="#70D9F6"/>
<path d="M25.8345 30.737L27.6025 31.4489C28.8267 29.0682 30.077 27.9 31.1463 27.3239C33.07 26.2868 34.4089 27.1652 33.9581 26.3482L30.6581 19.3855C30.3489 18.9556 29.9459 18.6293 29.4954 18.4161C29.0055 18.1844 28.4595 18.0869 27.917 18.1369C27.2874 18.1949 26.8759 18.8303 27.0764 19.43C27.5083 20.7219 27.6745 22.0205 27.6745 23.2537C27.6745 27.3577 25.8345 30.737 25.8345 30.737Z" fill="#70D9F6"/>
<path d="M27.6365 18.9423L28.9681 18.4336C29.1493 18.4336 29.4949 18.5974 29.4949 18.4161L29.2976 15.1639C29.2976 14.9827 29.1493 14.8345 28.9681 14.8345H28.1098C27.9285 14.8345 27.2021 15.182 27.2533 15.8326L27.0249 19.1109C27.0249 19.2922 27.4552 18.9423 27.6365 18.9423Z" fill="#70D9F6"/>
<path d="M19.9032 24.342C19.9032 24.342 18.7453 27.6468 21.8184 30.9778L14.508 30.7371L15.4702 23.4453L19.9032 24.342Z" fill="#70D9F6"/>
<path d="M5.99991 31.8562C5.99991 31.9846 6.05238 32.1013 6.13725 32.1861C6.22159 32.2705 6.33833 32.3231 6.46667 32.3231H17.7855C18.0423 32.3231 18.2523 32.113 18.2523 31.8562L18.1021 24.4531L14.2907 24.2198C9.21347 24.2197 5.99991 26.779 5.99991 31.8562Z" fill="#70D9F6"/>
<path d="M29.1523 16.2257C29.1523 16.3404 29.1628 16.4525 29.183 16.5614C29.3406 17.4094 30.0847 18.0512 30.9783 18.0512V14.4C29.97 14.4001 29.1523 15.2174 29.1523 16.2257Z" fill="#176D85"/>
<path d="M26.2703 16.4722C26.2774 16.4722 26.3531 16.4574 26.3603 16.456L28.3689 15.8987C28.4487 15.8831 28.5038 15.7844 28.4921 15.6781C28.4804 15.5718 28.4065 15.4982 28.3266 15.5138L26.3132 15.907C26.2335 15.9225 26.17 16.0436 26.1512 16.1481C26.1196 16.3231 26.1991 16.4722 26.2703 16.4722Z" fill="#115366"/>
<path d="M31.124 27.4648C31.1057 27.5772 31.0882 27.6861 31.0715 27.7911C31.0765 27.7888 31.0816 27.7861 31.0871 27.7837C31.6146 27.5324 32.2047 27.3916 32.8267 27.3916C34.9304 27.3916 36.6654 29.0017 36.8645 31.0544C36.886 31.2777 37.0711 31.4489 37.2952 31.4489H37.3181C37.7339 31.4489 38.0541 31.0793 37.9922 30.6682C37.6713 28.5368 36.0585 26.8229 33.9789 26.3533C33.9719 26.3514 33.9649 26.3498 33.9579 26.3483L30.658 19.3855C30.3487 18.9557 29.9457 18.6293 29.4953 18.4161C30.0578 19.3626 31.6095 22.3894 31.2485 26.4685C31.2236 26.7486 31.1897 27.0337 31.1462 27.3239C31.1388 27.3706 31.1318 27.4177 31.124 27.4648Z" fill="#25B4DC"/>
<path d="M12.323 22.8955V23.9952C12.323 24.1858 12.479 24.3421 12.67 24.3421H19.9031C20.0937 24.3421 20.2501 24.1857 20.2501 23.9952V22.8955C20.2501 22.7045 20.0937 22.5485 19.9031 22.5485H12.67C12.479 22.5485 12.323 22.7045 12.323 22.8955Z" fill="#176D85"/>
<path d="M29.183 16.5614C29.3406 17.4094 30.0847 18.0513 30.9783 18.0513V17.0325C30.4418 17.0539 29.6689 16.9955 29.183 16.5614Z" fill="#115366"/>
<path d="M14.6127 24.3422H19.9031C20.0937 24.3422 20.2501 24.1858 20.2501 23.9952V22.8955C20.2501 22.7045 20.0937 22.5485 19.9031 22.5485H16.2788C15.9637 22.9931 15.3717 23.747 14.6127 24.3422Z" fill="#115366"/>
<path d="M31.1239 27.4647C31.1056 27.5771 31.0881 27.6861 31.0714 27.7911C31.0764 27.7888 31.0815 27.786 31.087 27.7837C31.7385 27.1812 33.1152 26.6474 33.9788 26.3533C33.9718 26.3514 33.9647 26.3498 33.9578 26.3483L30.6578 19.3855C30.3486 18.9557 29.9456 18.6293 29.4951 18.4161C30.0577 19.3626 31.6094 22.3894 31.2484 26.4685C31.2234 26.7486 31.1896 27.0337 31.1461 27.3239C31.1387 27.3706 31.1317 27.4176 31.1239 27.4647Z" fill="#25B4DC"/>
<path d="M28.5511 30.7371C28.6793 30.7371 28.7843 30.8429 28.7843 30.9721V32.0879C28.7843 32.2171 28.6793 32.3229 28.5511 32.3229H16.7447L16.402 30.7371H28.5511Z" fill="#25B4DC"/>
<path d="M6.89665 32.323H17.7856C17.7856 32.323 18.45 28.2914 15.9993 26.9299C15.4092 26.602 14.6677 26.4892 13.8598 26.5681C11.3138 26.8175 8.10764 28.9749 6.89665 32.323Z" fill="#25B4DC"/>
<path d="M6.89674 32.323H11.4193C14.1489 30.9378 13.982 27.5959 13.8599 26.5681C11.3139 26.8175 8.10773 28.9749 6.89674 32.323Z" fill="#9DE5F9"/>
</svg>
