<svg width="21" height="20" viewBox="0 0 21 20" fill="none" xmlns="http://www.w3.org/2000/svg">
<path d="M10.5003 11.6667C6.32529 11.6667 2.92529 14.4667 2.92529 17.9167C2.92529 18.15 3.10863 18.3334 3.34196 18.3334H17.6586C17.892 18.3334 18.0753 18.15 18.0753 17.9167C18.0753 14.4667 14.6753 11.6667 10.5003 11.6667Z" fill="#29C6F2"/>
<path d="M14.5418 4.83334C14.4418 4.42501 14.2752 4.02501 14.0418 3.65834C13.8835 3.39168 13.6752 3.12501 13.4502 2.89168C12.7002 2.14168 11.7252 1.73334 10.7252 1.68334C9.59182 1.60834 8.43349 2.02501 7.55849 2.89168C6.73349 3.70834 6.31682 4.80001 6.33349 5.90001C6.34182 6.94168 6.75849 7.98334 7.55016 8.78334C8.10016 9.33334 8.77516 9.70001 9.50016 9.86668C9.89182 9.96668 10.3085 10.0167 10.7252 9.98334C11.7168 9.94168 12.6835 9.55001 13.4418 8.78334C14.5168 7.70834 14.8835 6.20001 14.5418 4.83334ZM12.1668 7.50001C11.8668 7.80001 11.3668 7.80001 11.0668 7.50001L10.4918 6.92501L9.94182 7.47501C9.64182 7.77501 9.14182 7.77501 8.84182 7.47501C8.53349 7.16668 8.53349 6.67501 8.83349 6.37501L9.38349 5.82501L8.85016 5.30834C8.55016 5.00001 8.55016 4.50834 8.85016 4.19168C9.15849 3.89168 9.65015 3.89168 9.96682 4.19168L10.4835 4.72501L11.0418 4.16668C11.3418 3.86668 11.8335 3.86668 12.1418 4.16668C12.4418 4.46668 12.4418 4.96668 12.1418 5.26668L11.5918 5.81668L12.1668 6.40001C12.4668 6.70001 12.4668 7.20001 12.1668 7.50001Z" fill="#29C6F2"/>
</svg>
