<svg width="21" height="20" viewBox="0 0 21 20" fill="none" xmlns="http://www.w3.org/2000/svg">
<path d="M10.5002 1.66669C8.20016 1.66669 6.3335 3.53335 6.3335 5.83335C6.3335 8.13335 8.20016 10 10.5002 10C12.8002 10 14.6668 8.13335 14.6668 5.83335C14.6668 3.53335 12.8002 1.66669 10.5002 1.66669ZM12.3085 5.42502L10.0585 7.67502C9.97516 7.75835 9.80016 7.84169 9.6835 7.86669L8.82516 7.98335C8.5085 8.02502 8.29183 7.80835 8.34183 7.50002L8.46683 6.64169C8.4835 6.52502 8.56683 6.35002 8.6585 6.26669L10.9085 4.01669C11.2918 3.63335 11.7502 3.45002 12.3168 4.01669C12.8752 4.59169 12.6918 5.04169 12.3085 5.42502Z" fill="#29C6F2"/>
<path d="M10.5003 11.6667C6.32529 11.6667 2.92529 14.4667 2.92529 17.9167C2.92529 18.15 3.10863 18.3334 3.34196 18.3334H17.6586C17.892 18.3334 18.0753 18.15 18.0753 17.9167C18.0753 14.4667 14.6753 11.6667 10.5003 11.6667Z" fill="#29C6F2"/>
</svg>
